<?xml version="1.0" ?><svg width="512px" height="512px" viewBox="0 0 512 512" id="Layer_1" style="enable-background:new 0 0 512 512;" version="1.1" xml:space="preserve" xmlns="http://www.w3.org/2000/svg" xmlns:xlink="http://www.w3.org/1999/xlink"><style type="text/css">
	.st0{fill:#EDEDED;}
	.st1{fill:#FFFFFF;}
	.st2{fill:#BD90BE;}
	.st3{fill:#D3B5D3;}
	.st4{fill:none;stroke:#333333;stroke-width:2;stroke-linecap:round;stroke-linejoin:round;stroke-miterlimit:10;}
	.st5{fill:#FEE8B3;}
	.st6{fill:#FFF4D9;}
	.st7{fill:#516468;}
	.st8{fill:#7C8B8D;}
	.st9{fill:#FB8A8A;}
	.st10{fill:#FDDD8D;}
	.st11{fill:#7BDE9E;}
	.st12{fill:#F96363;}
	.st13{fill:#FDD267;}
	.st14{fill:#50D27E;}
	.st15{fill:#333333;}
</style><g><path class="st0" d="M450.8,368.4c-2.1,3.8-6.1,5.8-10.1,5.8c-2,0-4-0.5-5.8-1.6l-167.2-96.6v193.1c0,6.4-5.2,11.7-11.7,11.7   c-6.4,0-11.7-5.2-11.7-11.7V276.2L77.1,372.7c-1.8,1-3.8,1.6-5.8,1.6c-4,0-8-2.1-10.1-5.8c-3.2-5.6-1.3-12.7,4.3-15.9L232.7,256   L65.5,159.4c-5.6-3.2-7.5-10.3-4.3-15.9c3.2-5.6,10.4-7.5,15.9-4.3l167.2,96.6V42.7c0-6.4,5.2-11.7,11.7-11.7   c6.4,0,11.7,5.2,11.7,11.7v193.1l167.2-96.6c5.6-3.2,12.7-1.3,15.9,4.3c3.2,5.6,1.3,12.7-4.3,15.9L279.2,256l167.3,96.6   C452.1,355.7,454,362.9,450.8,368.4z"/><g><g><path class="st1" d="M380.8,256c0,68.9-55.9,124.8-124.8,124.8c-68.9,0-124.8-55.9-124.8-124.8c0-68.9,55.9-124.8,124.8-124.8     C324.9,131.2,380.8,187.1,380.8,256z"/></g><g><path class="st0" d="M380.8,256c0,68.9-55.8,124.8-124.8,124.8c-43.4,0-81.6-22.2-103.9-55.8c19.8,13.2,43.4,20.8,69,20.8     c68.9,0,124.8-55.8,124.8-124.7c0-25.5-7.7-49.3-20.8-69.1C358.6,174.4,380.8,212.6,380.8,256z"/></g><g><g><g><path class="st2" d="M334.7,316.8v36c-21.5,17.5-48.9,28-78.8,28c-29.8,0-57.2-10.5-78.7-28v-36c0-27.8,22.5-50.4,50.3-50.4       h56.8C312.2,266.5,334.7,289,334.7,316.8z"/></g><g><path class="st3" d="M334.7,316.8v19.4c0-27.8-22.5-50.3-50.3-50.3h-56.8c-27.8,0-50.3,22.6-50.3,50.3v-19.4       c0-27.8,22.5-50.4,50.3-50.4h56.8C312.2,266.5,334.7,289,334.7,316.8z"/></g><g><path class="st4" d="M301.2,329.9"/></g></g><g><path class="st5" d="M291.6,207.7v34.5c0,18.2-14.8,33-33,33c-18.2,0-33-14.8-33-33v-34.5H291.6z"/></g><g><rect class="st6" height="13.3" width="66" x="225.6" y="207.7"/></g><g><path class="st7" d="M314.7,171.1l-23.1,36.6h-66v-21.1c0-8.5,7-15.5,15.5-15.5H314.7z"/></g><g><path class="st8" d="M314.7,171.1l-9.5,15.1h-64.1c-8.5,0-15.5,7-15.5,15.5v-15.1c0-8.5,7-15.5,15.5-15.5H314.7z"/></g></g></g><g><g><g><path class="st9" d="M294.8,42.7c0,21.4-17.4,38.8-38.8,38.8c-21.5,0-38.8-17.4-38.8-38.8c0-21.5,17.4-38.8,38.8-38.8      C277.4,3.9,294.8,21.3,294.8,42.7z"/></g><g><g><path class="st9" d="M294.8,469.3c0,21.4-17.4,38.8-38.8,38.8c-21.5,0-38.8-17.4-38.8-38.8c0-21.5,17.4-38.8,38.8-38.8       C277.4,430.4,294.8,447.8,294.8,469.3z"/></g></g></g><g><g><path class="st10" d="M90.7,115.7c18.6,10.7,24.9,34.5,14.2,53.1c-10.7,18.6-34.5,24.9-53.1,14.2      c-18.6-10.7-24.9-34.5-14.2-53.1C48.4,111.4,72.1,105,90.7,115.7z"/></g><g><g><path class="st10" d="M460.1,329c18.6,10.7,24.9,34.5,14.2,53.1c-10.7,18.6-34.5,24.9-53.1,14.2       c-18.6-10.7-24.9-34.5-14.2-53.1C417.8,324.7,441.5,318.3,460.1,329z"/></g></g></g><g><g><path class="st11" d="M51.9,329c18.6-10.7,42.3-4.3,53.1,14.2c10.7,18.6,4.3,42.3-14.2,53.1C72.1,407,48.4,400.6,37.7,382      C26.9,363.5,33.3,339.7,51.9,329z"/></g><g><g><path class="st11" d="M421.3,115.7c18.6-10.7,42.3-4.3,53.1,14.2c10.7,18.6,4.3,42.3-14.2,53.1c-18.6,10.7-42.3,4.4-53.1-14.2       C396.3,150.2,402.7,126.5,421.3,115.7z"/></g></g></g></g><g><g><g><path class="st12" d="M294.8,42.7c0,21.4-17.4,38.8-38.8,38.8c-16.4,0-30.3-10.1-36-24.3c4.5,1.8,9.4,2.8,14.5,2.8      c21.4,0,38.8-17.4,38.8-38.8c0-5.1-1-10.1-2.8-14.5C284.7,12.4,294.8,26.4,294.8,42.7z"/></g><g><g><path class="st12" d="M294.8,469.3c0,21.4-17.4,38.8-38.8,38.8c-16.4,0-30.3-10.1-36-24.4c4.5,1.8,9.4,2.8,14.5,2.8       c21.4,0,38.8-17.4,38.8-38.8c0-5.1-1-10-2.8-14.5C284.8,439,294.8,452.9,294.8,469.3z"/></g></g></g><g><g><path class="st13" d="M104.9,168.8c-10.7,18.6-34.5,24.9-53.1,14.2c-7.8-4.5-13.5-11.3-16.6-19.1c17.7,7.1,38.3,0.3,48.1-16.6      c6.2-10.8,6.7-23.2,2.4-33.9c1.7,0.7,3.3,1.4,4.9,2.4C109.3,126.5,115.6,150.2,104.9,168.8z"/></g><g><g><path class="st13" d="M474.3,382c-10.7,18.6-34.5,24.9-53.1,14.2c-7.8-4.5-13.5-11.4-16.6-19.1c17.6,7.1,38.3,0.4,48.1-16.6       c6.2-10.7,6.7-23.2,2.4-33.9c1.7,0.7,3.3,1.5,4.9,2.4C478.7,339.7,485,363.5,474.3,382z"/></g></g></g><g><g><path class="st14" d="M90.7,396.3C72.1,407,48.4,400.6,37.7,382c-0.9-1.6-1.7-3.2-2.4-4.9c10.7,4.3,23.1,3.8,33.9-2.4      c17-9.8,23.7-30.5,16.6-48.1c7.8,3.1,14.6,8.7,19.1,16.6C115.6,361.8,109.3,385.5,90.7,396.3z"/></g><g><g><path class="st14" d="M460.1,183c-18.6,10.8-42.3,4.4-53.1-14.2c-0.9-1.6-1.7-3.2-2.4-4.9c10.7,4.3,23.2,3.8,33.9-2.4       c16.9-9.8,23.7-30.5,16.6-48.1c7.8,3.1,14.6,8.8,19.1,16.6C485,148.5,478.7,172.3,460.1,183z"/></g></g></g></g><path class="st15" d="M462.1,325.6c-15.7-9-34.6-7.1-48.1,3.7l-39.6-22.9c6.6-15.5,10.3-32.5,10.3-50.4c0-17.9-3.7-35-10.3-50.5   l39.7-22.9c13.4,10.7,32.4,12.7,48.1,3.7c20.5-11.8,27.4-37.9,15.6-58.4c-11.8-20.4-37.9-27.4-58.4-15.6   c-15.6,9-23.5,26.3-20.9,43.5l-39.7,22.9c-20.5-27.3-51.7-46.1-87.2-50.4V82.5c15.9-6.2,27.2-21.7,27.2-39.8   C298.7,19.2,279.5,0,256,0s-42.7,19.2-42.7,42.7c0,18.1,11.3,33.5,27.2,39.8v45.8c-35.6,4.3-66.7,23.1-87.3,50.4l-39.7-22.9   c2.6-16.9-5.2-34.4-20.8-43.4c-20.5-11.8-46.5-4.8-58.4,15.6c-11.8,20.4-4.8,46.6,15.6,58.4c15.7,9.1,34.7,7,48.1-3.7l39.6,22.9   c-6.6,15.5-10.3,32.5-10.3,50.4c0,17.9,3.7,34.9,10.3,50.4L98,329.3c-13.3-10.7-32.4-12.7-48-3.7c-20.4,11.8-27.4,38-15.6,58.4   c11.7,20.3,37.9,27.4,58.4,15.6c15.6-9,23.4-26.5,20.8-43.4l39.7-22.9c20.5,27.3,51.7,46.1,87.2,50.4v45.9   c-15.9,6.2-27.2,21.7-27.2,39.8c0,23.6,19.2,42.7,42.7,42.7s42.7-19.2,42.7-42.7c0-18.1-11.3-33.5-27.2-39.8v-45.8   c35.6-4.3,66.7-23.1,87.3-50.4l39.7,22.9c-2.6,16.9,5.2,34.4,20.8,43.4c20.4,11.8,46.5,4.8,58.4-15.6   C489.5,363.6,482.5,337.4,462.1,325.6z M423.2,119.1c16.8-9.7,38.2-3.8,47.7,12.8c9.7,16.7,3.9,38.1-12.8,47.7   c-16.7,9.6-38.1,4-47.7-12.8C400.8,150.1,406.4,128.8,423.2,119.1z M400.4,163.6c0.9,2.4,1.9,4.8,3.3,7.1c1.3,2.3,2.8,4.4,4.5,6.4   L371,198.5c-2.3-4.7-4.9-9.1-7.8-13.4L400.4,163.6z M221,42.7c0-19.3,15.7-35,35-35s35,15.7,35,35s-15.7,35-35,35S221,62,221,42.7z    M256,85.5c2.7,0,5.2-0.3,7.8-0.7v42.9c-2.6-0.1-5.2-0.2-7.8-0.2c-2.6,0-5.2,0.1-7.8,0.2V84.7C250.7,85.2,253.3,85.5,256,85.5z    M53.8,179.6c-16.7-9.7-22.5-31-12.8-47.7c9.6-16.7,31-22.5,47.7-12.8c16.7,9.6,22.4,31.1,12.8,47.7   C91.9,183.6,70.5,189.3,53.8,179.6z M103.8,177.1c1.7-2,3.2-4.1,4.5-6.4c1.3-2.3,2.4-4.7,3.2-7.1l37.2,21.4   c-2.8,4.3-5.4,8.8-7.8,13.4L103.8,177.1z M88.8,392.9c-16.8,9.7-38.1,3.9-47.7-12.8c-9.6-16.7-3.9-38.1,12.8-47.7   c16.7-9.6,38.1-4,47.7,12.8C111.2,361.8,105.5,383.3,88.8,392.9z M111.5,348.4c-0.9-2.4-1.9-4.8-3.2-7.1c-1.3-2.3-2.9-4.4-4.5-6.3   l37.1-21.5c2.3,4.7,4.9,9.1,7.8,13.4L111.5,348.4z M290.9,469.3c0,19.3-15.7,35-35,35s-35-15.7-35-35s15.7-35,35-35   S290.9,450,290.9,469.3z M256,426.5c-2.7,0-5.3,0.3-7.8,0.7v-42.9c2.6,0.2,5.2,0.2,7.8,0.2c2.6,0,5.2-0.1,7.8-0.2v42.9   C261.2,426.8,258.6,426.5,256,426.5z M330.8,350.8c-9.1,7.2-19.3,13.2-30.3,17.6V315c0-2.2-1.7-3.9-3.9-3.9c-2.1,0-3.9,1.7-3.9,3.9   v56.2c-11.6,3.7-24,5.7-36.8,5.7c-12.8,0-25.2-2-36.7-5.7V315c0-2.2-1.7-3.9-3.9-3.9c-2.1,0-3.9,1.7-3.9,3.9v53.4   c-11-4.4-21.2-10.3-30.3-17.5v-34c0-25.6,20.8-46.5,46.4-46.5h7.3c6.4,5.4,14.7,8.7,23.8,8.7c9.1,0,17.4-3.3,23.8-8.7h2   c25.6,0,46.5,20.9,46.5,46.5V350.8z M287.7,211.6v30.6c0,16-13.1,29.1-29.1,29.1c-16,0-29.1-13.1-29.1-29.1v-30.6H287.7z    M229.5,203.8v-17.2c0-6.4,5.2-11.6,11.6-11.6h66.5l-18.2,28.8H229.5z M338.6,344.1v-27.3c0-28.3-21.8-51.6-49.4-54   c4-5.9,6.3-13,6.3-20.6v-33.4l22.5-35.7c0.8-1.2,0.8-2.7,0.1-3.9c-0.7-1.2-2-2-3.4-2h-73.6c-10.7,0-19.4,8.7-19.4,19.4v55.6   c0,7.5,2.3,14.5,6.2,20.4h-0.3c-29.9,0-54.1,24.4-54.1,54.3v27.3c-23.5-22.1-38.3-53.4-38.3-88.1c0-66.7,54.2-120.9,120.9-120.9   S376.9,189.3,376.9,256C376.9,290.8,362.1,322.1,338.6,344.1z M363.3,326.9c2.8-4.3,5.4-8.8,7.8-13.4l37.2,21.4   c-1.7,2-3.2,4.1-4.5,6.3c-1.3,2.3-2.4,4.7-3.2,7.1L363.3,326.9z M471,380.1c-9.7,16.7-31,22.5-47.7,12.8   c-16.7-9.7-22.5-31-12.8-47.7c9.7-16.7,31-22.5,47.7-12.8C474.9,342,480.6,363.4,471,380.1z"/></g></svg>