<?xml version="1.0" encoding="iso-8859-1"?>
<!-- Generator: Adobe Illustrator 19.0.0, SVG Export Plug-In . SVG Version: 6.00 Build 0)  -->
<svg version="1.1" id="Layer_1" xmlns="http://www.w3.org/2000/svg" xmlns:xlink="http://www.w3.org/1999/xlink" x="0px" y="0px"
	 viewBox="0 0 511.999 511.999" style="enable-background:new 0 0 511.999 511.999;" xml:space="preserve">
<g>
	<path style="fill:#FED159;" d="M159.479,186.815c0,0-74.655,59.178-47.342,155.683c0,0,46.926-49.528,100.296-35.261"/>
	<path style="fill:#FED159;" d="M354.404,186.815c0,0,74.655,59.178,47.342,155.683c0,0-46.926-49.528-100.296-35.261"/>
</g>
<path style="fill:#82DCC7;" d="M256.942,8.402c-57.4,25.358-97.463,111.627-97.463,178.413c0,43.827,17.253,83.621,45.336,112.968
	c28.406,29.684,75.847,29.684,104.253,0c28.084-29.347,45.336-69.141,45.336-112.968C354.404,120.028,314.341,33.761,256.942,8.402z
	"/>
<path style="fill:#95E5D0;" d="M256.942,8.402c39.875,25.358,67.705,111.627,67.705,178.413c0,43.827-11.985,83.621-31.494,112.968
	c-9.867,14.842-23.039,22.262-36.212,22.262c18.961,0,37.924-7.421,52.127-22.262c28.084-29.347,45.336-69.141,45.336-112.968
	C354.404,120.029,314.341,33.761,256.942,8.402z"/>
<path style="fill:#74CBB4;" d="M220.73,299.783c-19.508-29.347-31.494-69.141-31.494-112.968
	c0-66.786,27.831-153.054,67.706-178.413c-57.4,25.358-97.463,111.627-97.463,178.413c0,43.827,17.253,83.621,45.336,112.968
	c14.203,14.842,33.164,22.262,52.127,22.262C243.77,322.045,230.597,314.624,220.73,299.783z"/>
<path style="fill:#F64B4A;" d="M256.942,503.792c27.645-12.213,46.94-53.762,46.94-85.927c0-21.108-8.31-40.273-21.835-54.408
	c-13.68-14.296-36.529-14.296-50.211,0c-13.525,14.134-21.835,33.299-21.835,54.408C210.002,450.03,229.297,491.578,256.942,503.792
	z"/>
<path style="fill:#FED159;" d="M256.942,425.378c13.295-5.873,22.573-25.854,22.573-41.323c0-10.151-3.996-19.368-10.5-26.165
	c-6.579-6.876-17.567-6.876-24.146,0c-6.505,6.797-10.5,16.013-10.5,26.165C234.368,399.525,243.647,419.505,256.942,425.378z"/>
<path d="M255.999,344.333c-11.86,0-22.908,4.718-31.105,13.285c-5.607,5.859-10.363,12.457-14.138,19.61
	c-2.141,4.057-0.586,9.081,3.47,11.221c4.058,2.138,9.081,0.586,11.221-3.47c3.054-5.79,6.905-11.132,11.446-15.877
	c5.034-5.261,11.819-8.159,19.104-8.159c7.285,0,14.07,2.898,19.105,8.159c12.594,13.161,19.53,30.443,19.53,48.665
	c0,26.978-15.699,63.833-38.636,76.652c-22.936-12.819-38.635-49.674-38.635-76.652c0-4.587-3.718-8.305-8.305-8.305
	c-4.587,0-8.305,3.719-8.305,8.305c0,17.322,5.117,37.104,14.039,54.275c9.797,18.855,23.239,32.794,37.851,39.249
	c1.069,0.472,2.212,0.709,3.356,0.709c1.144,0,2.288-0.236,3.356-0.709c14.612-6.456,28.054-20.394,37.85-39.249
	c8.922-17.171,14.039-36.954,14.039-54.275c0-22.521-8.573-43.882-24.139-60.149C278.907,349.051,267.86,344.333,255.999,344.333z"
	/>
<path d="M394.598,224.269c-12.303-21.668-26.664-35.832-32.875-41.403c-0.45-20.796-4.505-43.456-11.802-65.807
	c-1.424-4.361-6.114-6.742-10.472-5.318c-4.361,1.423-6.74,6.113-5.318,10.472c7.214,22.095,11.027,44.401,11.027,64.503
	c0,40.147-15.283,78.228-43.031,107.226c-12.157,12.704-28.538,19.7-46.126,19.7c-17.588,0-33.97-6.995-46.126-19.7
	c-27.749-28.998-43.032-67.078-43.032-107.226c0-31.998,9.575-68.78,26.271-100.912c16.882-32.49,39.104-56.597,62.888-68.334
	c24.093,11.886,46.526,36.402,63.48,69.488c2.093,4.082,7.097,5.696,11.179,3.603c4.083-2.092,5.695-7.097,3.603-11.179
	c-19.472-37.997-46.074-65.937-74.908-78.675c-2.138-0.945-4.574-0.945-6.713,0c-28.486,12.584-54.862,40.086-74.27,77.438
	c-17.223,33.145-27.343,71.056-28.071,104.695c-6.197,5.556-20.581,19.73-32.901,41.426
	c-14.697,25.884-29.089,67.781-14.197,120.395c0.813,2.874,3.106,5.089,6.006,5.803c0.658,0.162,1.324,0.24,1.984,0.24
	c2.251,0,4.44-0.917,6.028-2.593c0.434-0.457,43.837-45.523,91.711-33.052c13.592,9.862,29.864,15.193,47.066,15.193
	c17.201,0,33.473-5.332,47.065-15.193c47.696-12.421,91.281,32.603,91.71,33.052c1.588,1.677,3.777,2.593,6.028,2.593
	c0.661,0,1.327-0.079,1.984-0.24c2.9-0.714,5.192-2.93,6.006-5.803C423.686,292.049,409.294,250.152,394.598,224.269z
	 M116.03,326.853c-6.292-32.802-1.096-64.306,15.505-93.832c6.513-11.583,13.758-20.859,19.723-27.538
	c3.632,33.431,16.923,64.873,38.492,90.834c-17.12,0.405-34.936,5.754-52.565,15.906
	C128.607,317.164,121.412,322.457,116.03,326.853z M395.97,326.853c-5.383-4.396-12.577-9.689-21.155-14.629
	c-17.628-10.152-35.445-15.501-52.564-15.906c21.569-25.961,34.86-57.403,38.492-90.834c5.965,6.678,13.21,15.955,19.723,27.538
	C397.066,262.547,402.262,294.051,395.97,326.853z"/>
<path d="M284.306,149.084c4.587,0,8.305-3.718,8.305-8.305c0-4.587-3.719-8.305-8.305-8.305h-20.001v-11.311
	c0-4.587-3.718-8.305-8.305-8.305s-8.305,3.718-8.305,8.305v11.311h-20c-4.587,0-8.305,3.719-8.305,8.305v34.329
	c0,4.587,3.719,8.305,8.305,8.305h48.307v17.719h-48.307c-4.587,0-8.305,3.719-8.305,8.305c0,4.587,3.719,8.305,8.305,8.305h20.001
	v11.311c0,4.587,3.718,8.305,8.305,8.305c4.587,0,8.305-3.719,8.305-8.305v-11.311h20.001c4.587,0,8.305-3.719,8.305-8.305v-34.329
	c0-4.587-3.719-8.305-8.305-8.305h-48.307v-17.719H284.306z"/>
<g>
</g>
<g>
</g>
<g>
</g>
<g>
</g>
<g>
</g>
<g>
</g>
<g>
</g>
<g>
</g>
<g>
</g>
<g>
</g>
<g>
</g>
<g>
</g>
<g>
</g>
<g>
</g>
<g>
</g>
</svg>
