<?xml version="1.0" encoding="iso-8859-1"?>
<!-- Generator: Adobe Illustrator 19.0.0, SVG Export Plug-In . SVG Version: 6.00 Build 0)  -->
<svg version="1.1" id="Layer_1" xmlns="http://www.w3.org/2000/svg" xmlns:xlink="http://www.w3.org/1999/xlink" x="0px" y="0px"
	 viewBox="0 0 495 495" style="enable-background:new 0 0 495 495;" xml:space="preserve">
<g>
	<path style="fill:#FFDA44;" d="M345.82,115.5c0-19.95-7.45-38.99-20.99-53.62c-11.45-12.37-26.36-20.66-42.68-23.87
		C260.26,13.75,229.48,0,196.5,0v115.5H345.82z"/>
	<path style="fill:#FFEB99;" d="M196.5,0c-32.98,0-63.76,13.75-85.65,38.01c-16.32,3.21-31.23,11.5-42.68,23.87
		C54.63,76.51,47.18,95.55,47.18,115.5H196.5V0z"/>
	<path style="fill:#FFB655;" d="M386,173.282h-26V115.5H196.5v120H360v-22.218h26c19.851,0,36,16.149,36,36v111.936
		c0,19.851-16.149,36-36,36h-26v40h26c41.906,0,76-34.094,76-76V249.282C462,207.376,427.906,173.282,386,173.282z"/>
	<rect x="196.5" y="235.5" style="fill:#CD2A00;" width="163.5" height="259.5"/>
	<rect x="33" y="235.5" style="fill:#FF5023;" width="163.5" height="259.5"/>
	<rect x="33" y="115.5" style="fill:#FFC477;" width="163.5" height="120"/>
</g>
<g>
</g>
<g>
</g>
<g>
</g>
<g>
</g>
<g>
</g>
<g>
</g>
<g>
</g>
<g>
</g>
<g>
</g>
<g>
</g>
<g>
</g>
<g>
</g>
<g>
</g>
<g>
</g>
<g>
</g>
</svg>
