<?xml version="1.0" encoding="iso-8859-1"?>
<!-- Generator: Adobe Illustrator 19.0.0, SVG Export Plug-In . SVG Version: 6.00 Build 0)  -->
<svg version="1.1" id="Layer_1" xmlns="http://www.w3.org/2000/svg" xmlns:xlink="http://www.w3.org/1999/xlink" x="0px" y="0px"
	 viewBox="0 0 330.013 330.013" style="enable-background:new 0 0 330.013 330.013;" xml:space="preserve">
<g>
	<g>
		<g>
			<path style="fill:#D3831F;" d="M285.016,169.949c0.057,0,0.14,0.014,0.17-0.001c0.046,0.001,0.086-0.001,0.128-0.002
				c0.009,0,0.017-0.001,0.027-0.001c-0.112,0-0.215,0.004-0.327,0.004L285.016,169.949L285.016,169.949z"/>
			<path style="fill:#D3831F;" d="M265.457,168.325c-0.373-0.069-0.749-0.137-1.111-0.209c0.015,0.003,0.028,0.007,0.044,0.009
				c0.15,0.03,0.303,0.059,0.454,0.088C265.044,168.252,265.253,168.287,265.457,168.325z"/>
			<path style="fill:#D3831F;" d="M254.44,165.541c-0.271-0.086-0.544-0.171-0.812-0.257c0.045,0.015,0.088,0.028,0.132,0.043
				c0.105,0.033,0.211,0.067,0.317,0.101C254.197,165.466,254.32,165.503,254.44,165.541z"/>
			<path style="fill:#D3831F;" d="M252.821,165.023c-0.26-0.084-0.519-0.169-0.775-0.253c0.111,0.036,0.221,0.072,0.332,0.109
				c0.022,0.008,0.046,0.015,0.068,0.022C252.569,164.942,252.697,164.983,252.821,165.023z"/>
			<path style="fill:#D3831F;" d="M263.4,167.92c-0.352-0.074-0.705-0.148-1.048-0.225c0.005,0.001,0.009,0.002,0.014,0.003
				c0.099,0.022,0.195,0.045,0.295,0.067C262.901,167.819,263.155,167.867,263.4,167.92z"/>
			<path style="fill:#D3831F;" d="M259.576,167.023c-0.313-0.081-0.626-0.162-0.931-0.244c0.054,0.015,0.104,0.029,0.158,0.044
				c0.044,0.012,0.087,0.023,0.131,0.035C259.145,166.914,259.364,166.967,259.576,167.023z"/>
			<path style="fill:#D3831F;" d="M269.941,169.031c-0.428-0.057-0.86-0.111-1.274-0.172c0.007,0.001,0.013,0.002,0.02,0.004
				c0.16,0.023,0.324,0.045,0.486,0.067C269.423,168.966,269.685,168.998,269.941,169.031z"/>
			<path style="fill:#D3831F;" d="M261.44,167.483c-0.33-0.078-0.661-0.154-0.982-0.234c0.023,0.006,0.046,0.012,0.069,0.018
				c0.134,0.033,0.27,0.066,0.405,0.099C261.098,167.404,261.271,167.444,261.44,167.483z"/>
			<path style="fill:#D3831F;" d="M257.795,166.542c-0.295-0.083-0.592-0.166-0.882-0.25c0.032,0.009,0.063,0.019,0.095,0.028
				c0.12,0.034,0.241,0.068,0.362,0.104C257.51,166.464,257.655,166.502,257.795,166.542z"/>
			<path style="fill:#D3831F;" d="M250.268,164.18c0.219,0.073,0.44,0.146,0.661,0.221c0.081,0.026,0.164,0.054,0.245,0.08
				C250.871,164.381,250.567,164.279,250.268,164.18z"/>
			<path style="fill:#D3831F;" d="M266.501,168.515c-0.018-0.003-0.036-0.005-0.053-0.009c0.108,0.02,0.217,0.038,0.326,0.057
				c0.279,0.047,0.574,0.09,0.859,0.135C267.254,168.638,266.87,168.578,266.501,168.515z"/>
			<path style="fill:#D3831F;" d="M285.008,199.842c-0.541,0-1.076,0.028-1.602,0.084h1.604h1.578
				c-0.52-0.055-1.045-0.084-1.578-0.084C285.01,199.842,285.009,199.842,285.008,199.842z"/>
		</g>
		<path style="fill:#F0D03D;" d="M305.008,199.926h-4.998h-13.422h-1.578h-1.604H270.01H60H45.008H45H30h-4.992
			c-8.284,0-15,6.716-15,15s6.716,15,15,15h5h15h15h210h15h15h5c8.284,0,15-6.716,15-15S313.292,199.926,305.008,199.926z"/>
		<path style="fill:#75B26D;" d="M329.238,145.205c-2.62-7.859-11.115-12.104-18.974-9.486c-3.441,1.148-6.537,2.176-10.245,2.933
			c-3.926,0.801-8.54,1.298-15,1.298c-0.003,0-0.006,0-0.009,0c-6.454,0-11.066-0.495-14.991-1.295
			c-0.207-0.041-0.41-0.085-0.612-0.129c-0.208-0.045-0.418-0.088-0.622-0.135c-0.252-0.058-0.498-0.117-0.744-0.178
			c-0.201-0.049-0.404-0.096-0.603-0.146c-0.211-0.053-0.418-0.108-0.626-0.164c-0.032-0.009-0.065-0.018-0.098-0.025
			c-0.194-0.052-0.391-0.102-0.583-0.156c-0.233-0.064-0.464-0.131-0.694-0.197c-0.198-0.057-0.397-0.113-0.594-0.171
			c-0.001-0.001-0.003-0.001-0.003-0.001c-0.193-0.058-0.386-0.117-0.577-0.176c-0.019-0.006-0.037-0.011-0.055-0.017
			c-0.213-0.064-0.426-0.128-0.637-0.194c-0.103-0.032-0.207-0.065-0.311-0.099c-0.016-0.005-0.032-0.011-0.048-0.016
			c-0.063-0.02-0.125-0.04-0.188-0.06c-0.241-0.077-0.483-0.153-0.727-0.231c-0.086-0.028-0.172-0.057-0.258-0.085
			c-0.752-0.245-1.51-0.496-2.286-0.756c-5.071-1.689-10.564-3.521-18.229-4.657c-4.599-0.681-9.978-1.112-16.516-1.112h-0.001
			h-0.001c-17.436,0-26.632,3.065-34.746,5.77c-7.089,2.363-12.689,4.23-25.252,4.23c-12.567,0-18.168-1.867-25.259-4.23
			c-8.113-2.704-17.309-5.77-34.74-5.77h-0.001h-0.001c-0.001,0-0.001,0-0.001,0h-0.001c-8.716,0-15.373,0.767-20.865,1.871
			c-0.781,0.157-1.533,0.322-2.27,0.492c-0.081,0.019-0.159,0.038-0.24,0.057c-0.684,0.16-1.351,0.324-2.001,0.492
			c-0.004,0.001-0.008,0.002-0.012,0.003c-0.006,0.001-0.012,0.003-0.018,0.005c-2.534,0.656-4.83,1.367-7.003,2.078
			c-0.133,0.044-0.265,0.087-0.396,0.13c-0.568,0.187-1.13,0.373-1.686,0.559c-0.083,0.027-0.17,0.056-0.253,0.083
			c-0.88,0.294-1.736,0.579-2.586,0.855c-0.083,0.026-0.165,0.052-0.247,0.079c-0.336,0.107-0.671,0.215-1.006,0.319
			c-0.151,0.048-0.304,0.093-0.456,0.14c-0.268,0.082-0.535,0.164-0.804,0.244c-0.18,0.053-0.361,0.104-0.542,0.156
			c-0.244,0.07-0.489,0.142-0.736,0.21c-0.192,0.053-0.389,0.104-0.583,0.155c-0.239,0.064-0.478,0.128-0.721,0.189
			c-0.203,0.052-0.412,0.101-0.618,0.15c-0.241,0.059-0.48,0.117-0.726,0.173c-0.211,0.048-0.428,0.093-0.643,0.14
			c-0.197,0.042-0.396,0.084-0.597,0.125c-3.925,0.8-8.536,1.295-14.99,1.295c-0.003,0-0.007,0-0.01,0
			c-6.46,0-11.073-0.497-15-1.298c-3.709-0.757-6.806-1.784-10.249-2.933c-7.859-2.618-16.353,1.628-18.974,9.487
			c-2.619,7.858,1.628,16.354,9.487,18.974c5.394,1.798,11.281,3.75,19.735,4.86c4.26,0.56,9.16,0.909,15,0.909
			c0.003,0,0.007,0,0.01,0c1.09,0,2.146-0.012,3.174-0.035c0.639-0.015,1.266-0.033,1.881-0.056
			c0.121-0.005,0.237-0.011,0.357-0.017c0.489-0.02,0.978-0.039,1.453-0.064c0.251-0.013,0.492-0.029,0.738-0.043
			c0.336-0.021,0.677-0.038,1.006-0.061c0.28-0.019,0.55-0.041,0.825-0.062c0.286-0.021,0.577-0.041,0.858-0.064
			c0.297-0.024,0.583-0.053,0.874-0.079c0.248-0.022,0.501-0.044,0.745-0.068c0.325-0.031,0.64-0.066,0.958-0.102
			c0.201-0.021,0.407-0.042,0.605-0.064c0.318-0.036,0.626-0.076,0.938-0.115c0.189-0.023,0.385-0.045,0.572-0.07
			c0.313-0.041,0.617-0.085,0.924-0.128c0.172-0.024,0.349-0.048,0.519-0.072c0.034-0.005,0.071-0.01,0.105-0.015
			c0.676-0.101,1.329-0.208,1.973-0.318c0.02-0.004,0.038-0.007,0.057-0.01c0.146-0.025,0.29-0.051,0.434-0.076
			c0.171-0.03,0.333-0.063,0.503-0.095c0.438-0.08,0.879-0.159,1.302-0.243c0.026-0.006,0.053-0.011,0.079-0.016
			c0.607-0.123,1.196-0.25,1.776-0.381c0.054-0.012,0.106-0.023,0.16-0.036c0.091-0.02,0.183-0.041,0.273-0.061
			c0.368-0.085,0.726-0.173,1.085-0.26c0.187-0.045,0.379-0.088,0.562-0.134c0.018-0.005,0.036-0.009,0.054-0.013
			c0.551-0.139,1.086-0.28,1.614-0.424c0.007-0.002,0.015-0.004,0.021-0.006c0.029-0.008,0.058-0.016,0.087-0.023
			c0.102-0.028,0.203-0.056,0.304-0.084c0.508-0.14,1.01-0.281,1.499-0.425c0.011-0.003,0.021-0.006,0.032-0.009
			c0.511-0.15,1.01-0.302,1.504-0.455c0.008-0.002,0.015-0.004,0.022-0.006c0.105-0.033,0.21-0.065,0.314-0.098
			c0.009-0.003,0.018-0.006,0.026-0.009c0.475-0.147,0.944-0.296,1.406-0.445c0.005-0.001,0.011-0.003,0.017-0.005
			c0.483-0.156,0.959-0.313,1.431-0.469c0.007-0.002,0.013-0.004,0.02-0.006c0.114-0.037,0.228-0.074,0.341-0.112
			c0.44-0.146,0.879-0.292,1.313-0.437c2.659-0.887,5.108-1.703,7.795-2.377c4.476-1.124,9.609-1.854,17.463-1.854
			c10.307,0,15.928,1.256,21.528,3.012c0.801,0.251,1.601,0.512,2.413,0.781c0.434,0.144,0.871,0.289,1.314,0.438
			c8.113,2.704,17.31,5.77,34.745,5.77c17.432,0,26.627-3.064,34.739-5.77c5.762-1.92,10.539-3.513,18.869-4.043
			c1.922-0.122,4.033-0.188,6.39-0.188h0.001h0.001c12.566,0,18.167,1.867,25.258,4.23c0.299,0.1,0.604,0.201,0.906,0.301
			c0.136,0.045,0.27,0.09,0.406,0.136c0.115,0.038,0.23,0.076,0.347,0.114c0.039,0.013,0.079,0.025,0.118,0.039
			c0.257,0.084,0.516,0.169,0.775,0.253c0.268,0.087,0.536,0.175,0.808,0.262c0.268,0.086,0.54,0.171,0.812,0.257
			c0.124,0.039,0.246,0.078,0.372,0.117c0.109,0.035,0.22,0.068,0.33,0.104c0.032,0.01,0.066,0.02,0.099,0.029
			c0.279,0.086,0.564,0.171,0.849,0.256c0.273,0.082,0.546,0.164,0.824,0.245c0.29,0.084,0.587,0.167,0.882,0.25
			c0.14,0.039,0.275,0.079,0.416,0.118c0.125,0.034,0.25,0.068,0.376,0.102c0.02,0.005,0.04,0.011,0.059,0.016
			c0.305,0.082,0.618,0.163,0.931,0.244c0.218,0.056,0.427,0.114,0.648,0.17c0.008,0.002,0.017,0.004,0.024,0.006
			c0.067,0.017,0.14,0.032,0.208,0.05c0.321,0.08,0.652,0.156,0.982,0.234c0.158,0.037,0.313,0.076,0.473,0.113
			c0.144,0.033,0.288,0.065,0.433,0.098c0.003,0.001,0.005,0.002,0.007,0.002c0.343,0.076,0.696,0.15,1.048,0.225
			c0.245,0.051,0.481,0.105,0.731,0.156c0.023,0.004,0.049,0.009,0.072,0.014c0.046,0.009,0.096,0.018,0.143,0.026
			c0.362,0.072,0.738,0.14,1.111,0.209c0.183,0.034,0.358,0.069,0.544,0.103c0.148,0.025,0.297,0.053,0.447,0.078
			c0.017,0.004,0.035,0.006,0.053,0.009c0.369,0.064,0.753,0.123,1.133,0.183c0.281,0.045,0.552,0.093,0.839,0.136
			c0.04,0.006,0.083,0.011,0.123,0.017c0.022,0.004,0.047,0.007,0.07,0.01c0.414,0.061,0.847,0.115,1.274,0.172
			c0.357,0.047,0.705,0.097,1.071,0.141c0.446,0.054,0.912,0.101,1.373,0.149c0.37,0.039,0.731,0.081,1.112,0.117
			c0.482,0.046,0.988,0.083,1.487,0.124c0.382,0.03,0.753,0.064,1.145,0.092c0.538,0.037,1.103,0.066,1.66,0.097
			c0.378,0.021,0.742,0.046,1.128,0.064c0.643,0.029,1.314,0.048,1.982,0.068c0.327,0.009,0.64,0.024,0.974,0.031
			c1.016,0.023,2.06,0.035,3.137,0.035c0.001,0,0.003,0,0.003,0c0.113,0,0.216-0.004,0.328-0.004
			c5.693-0.013,10.495-0.357,14.674-0.904c8.456-1.11,14.344-3.063,19.737-4.861C327.612,161.559,331.859,153.064,329.238,145.205z"
			/>
		<g>
			<path style="fill:#E29229;" d="M258.952,59.404c-18.61-13.958-41.642-23.287-66.626-27.213c-3.569-0.56-7.179-1.012-10.82-1.35
				c-2.158-0.201-4.328-0.361-6.507-0.482c-2.18-0.121-4.369-0.202-6.567-0.243c-1.099-0.021-2.2-0.03-3.303-0.03
				c-0.041,0-0.081,0.001-0.122,0.001c-35.262,0.024-68.572,10.429-93.808,29.306C44.632,79.268,30,106.1,30,134.95v3.702
				c3.927,0.801,8.54,1.298,15,1.298c0.003,0,0.007,0,0.01,0c6.454,0,11.065-0.495,14.99-1.295c0.201-0.041,0.399-0.083,0.597-0.125
				c0.215-0.047,0.432-0.092,0.643-0.14c0.245-0.056,0.484-0.114,0.726-0.173c0.206-0.05,0.415-0.099,0.618-0.15
				c0.243-0.062,0.481-0.126,0.721-0.189c0.194-0.052,0.391-0.102,0.583-0.155c0.247-0.068,0.492-0.14,0.736-0.21
				c0.181-0.053,0.362-0.104,0.542-0.156c0.269-0.08,0.536-0.162,0.804-0.244c0.152-0.047,0.305-0.092,0.456-0.14
				c0.335-0.104,0.67-0.212,1.006-0.319c0.082-0.027,0.164-0.053,0.247-0.079c0.85-0.275,1.706-0.561,2.586-0.855
				c2.874-0.957,5.893-1.959,9.355-2.854c0.603-0.155,1.225-0.307,1.854-0.456c0.174-0.041,0.345-0.082,0.521-0.123
				c0.562-0.129,1.142-0.252,1.729-0.374c0.261-0.054,0.522-0.108,0.789-0.16c0.501-0.099,1.009-0.195,1.53-0.288
				c0.241-0.043,0.491-0.083,0.737-0.124c0.406-0.069,0.818-0.136,1.237-0.2c0.245-0.037,0.489-0.076,0.738-0.112
				c0.613-0.089,1.238-0.174,1.88-0.253c0.21-0.026,0.427-0.051,0.64-0.076c0.557-0.064,1.122-0.127,1.7-0.185
				c0.186-0.018,0.367-0.038,0.556-0.056c0.728-0.068,1.476-0.131,2.239-0.186c0.205-0.016,0.413-0.029,0.62-0.043
				c0.715-0.048,1.443-0.091,2.192-0.127c0.115-0.006,0.226-0.013,0.342-0.018c0.845-0.039,1.718-0.067,2.607-0.09
				c0.214-0.005,0.432-0.01,0.648-0.014c0.921-0.018,1.857-0.031,2.828-0.031c0,0,0,0,0.001,0h0.001
				c1.527,0,2.971,0.031,4.376,0.076c14.638,0.466,22.963,3.227,30.365,5.693c7.09,2.363,12.69,4.23,25.256,4.23h0.003
				c12.563,0,18.163-1.867,25.252-4.23c8.114-2.704,17.311-5.77,34.746-5.77c0.001,0,0.001,0,0.001,0h0.001
				c6.538,0,11.917,0.432,16.516,1.112c2.874,0.426,5.442,0.95,7.799,1.527c3.926,0.962,7.26,2.073,10.43,3.13
				c0.154,0.052,0.301,0.1,0.453,0.15c0.498,0.166,0.994,0.33,1.482,0.489c0.116,0.038,0.236,0.079,0.352,0.116
				c0.086,0.028,0.172,0.057,0.258,0.085c0.243,0.079,0.484,0.154,0.727,0.231c0.063,0.02,0.125,0.04,0.188,0.06
				c0.116,0.037,0.233,0.075,0.35,0.111c0.084,0.026,0.169,0.052,0.254,0.077c0.131,0.04,0.262,0.08,0.393,0.12
				c0.018,0.006,0.036,0.011,0.055,0.017c0.192,0.059,0.384,0.118,0.576,0.176c0,0,0.003,0,0.004,0.001
				c0.154,0.046,0.311,0.09,0.468,0.134c0.05,0.015,0.1,0.029,0.149,0.043c0.223,0.064,0.443,0.129,0.668,0.191
				c0.196,0.054,0.396,0.105,0.594,0.158c0.238,0.063,0.475,0.127,0.716,0.188c0.198,0.051,0.401,0.098,0.603,0.146
				c0.246,0.061,0.492,0.12,0.744,0.178c0.204,0.047,0.414,0.09,0.622,0.135c0.202,0.044,0.405,0.088,0.612,0.129
				c3.925,0.8,8.537,1.295,14.991,1.295c0.003,0,0.006,0,0.009,0c6.46,0,11.074-0.497,15-1.298l0.001-3.702
				C300.02,106.098,285.435,79.269,258.952,59.404z"/>
			<path style="fill:#E29229;" d="M285.008,229.926h-15H165.007H60.008h-15h-15v5c0,35.842,29.159,65,65,65h69.999h70.001
				c35.841,0,65-29.158,65-65v-5L285.008,229.926L285.008,229.926z"/>
			<path style="fill:#D7380E;" d="M285.341,169.946c-0.01,0-0.018,0.001-0.027,0.001c-0.042,0.001-0.082,0.003-0.128,0.002
				c-0.03,0.015-0.113,0.001-0.17,0.001h-0.002h-0.004c-1.077,0-2.121-0.012-3.137-0.035c-0.334-0.007-0.646-0.021-0.974-0.031
				c-0.668-0.021-1.34-0.039-1.982-0.068c-0.386-0.018-0.75-0.043-1.128-0.064c-0.558-0.03-1.122-0.06-1.66-0.097
				c-0.392-0.027-0.763-0.061-1.145-0.092c-0.499-0.041-1.005-0.078-1.487-0.124c-0.381-0.036-0.742-0.078-1.112-0.117
				c-0.461-0.049-0.927-0.096-1.373-0.149c-0.366-0.044-0.715-0.094-1.071-0.141c-0.256-0.033-0.518-0.065-0.768-0.101
				c-0.162-0.022-0.326-0.044-0.486-0.067c-0.007-0.002-0.013-0.003-0.02-0.004c-0.023-0.003-0.048-0.006-0.07-0.01
				c-0.04-0.006-0.083-0.011-0.123-0.017c-0.287-0.043-0.558-0.091-0.839-0.136c-0.285-0.045-0.58-0.088-0.859-0.135
				c-0.109-0.019-0.218-0.037-0.326-0.057c-0.15-0.025-0.299-0.053-0.447-0.078c-0.186-0.033-0.361-0.068-0.544-0.103
				c-0.204-0.038-0.413-0.073-0.613-0.112c-0.151-0.029-0.305-0.058-0.454-0.088c-0.016-0.002-0.029-0.006-0.044-0.009
				c-0.047-0.009-0.097-0.018-0.143-0.026c-0.023-0.005-0.049-0.01-0.072-0.014c-0.25-0.051-0.486-0.105-0.731-0.156
				c-0.245-0.053-0.499-0.102-0.739-0.154c-0.1-0.023-0.196-0.045-0.295-0.067c-0.005-0.001-0.009-0.002-0.014-0.003
				c-0.002,0-0.005-0.001-0.007-0.002c-0.145-0.032-0.289-0.064-0.433-0.098c-0.16-0.037-0.315-0.076-0.473-0.113
				c-0.169-0.039-0.342-0.078-0.508-0.118c-0.136-0.032-0.272-0.065-0.405-0.099c-0.023-0.006-0.046-0.012-0.069-0.018
				c-0.068-0.018-0.141-0.033-0.208-0.05c-0.008-0.002-0.017-0.004-0.024-0.006c-0.222-0.056-0.431-0.114-0.648-0.17
				c-0.213-0.056-0.433-0.108-0.642-0.165c-0.044-0.012-0.087-0.023-0.131-0.035c-0.054-0.015-0.105-0.029-0.158-0.044
				c-0.019-0.005-0.039-0.011-0.059-0.016c-0.126-0.034-0.251-0.068-0.376-0.102c-0.141-0.039-0.276-0.079-0.416-0.118
				c-0.141-0.04-0.285-0.078-0.425-0.118c-0.121-0.035-0.242-0.069-0.362-0.104c-0.636-0.185-1.257-0.371-1.866-0.559
				c-0.11-0.035-0.221-0.068-0.33-0.104c-0.126-0.039-0.248-0.078-0.372-0.117c-0.12-0.038-0.243-0.075-0.362-0.113
				c-0.106-0.033-0.212-0.067-0.317-0.101c-0.044-0.015-0.087-0.028-0.132-0.043c-0.271-0.087-0.54-0.175-0.808-0.262
				c-0.124-0.04-0.252-0.081-0.375-0.121c-0.022-0.008-0.046-0.015-0.068-0.022c-0.15-0.049-0.3-0.099-0.45-0.148
				c-0.116-0.038-0.231-0.076-0.347-0.114c-0.137-0.046-0.271-0.091-0.406-0.136c-0.081-0.026-0.164-0.054-0.245-0.08
				c-0.014-0.005-0.027-0.01-0.041-0.014c-0.207-0.069-0.414-0.139-0.62-0.207c-7.091-2.363-12.691-4.23-25.258-4.23
				c-0.002,0,0,0-0.002,0c-2.356,0-4.468,0.065-6.39,0.188c-8.33,0.53-13.108,2.123-18.869,4.043
				c-8.112,2.705-17.308,5.77-34.739,5.77h-0.003c-17.434,0-26.629-3.065-34.742-5.77c-0.443-0.148-0.881-0.294-1.314-0.438
				c-6.504-2.152-12.162-3.793-23.941-3.793c-7.854,0-12.987,0.73-17.463,1.854c-2.687,0.674-5.136,1.49-7.795,2.377
				c-0.425,0.142-0.854,0.284-1.285,0.428c-0.129,0.042-0.258,0.085-0.388,0.127c-0.472,0.156-0.947,0.313-1.431,0.469
				c-0.006,0.002-0.012,0.004-0.017,0.005c-0.462,0.15-0.932,0.298-1.406,0.445c-0.12,0.038-0.241,0.075-0.363,0.112
				c-0.494,0.153-0.993,0.305-1.504,0.455c-0.011,0.003-0.021,0.006-0.032,0.009c-0.489,0.144-0.991,0.285-1.499,0.425
				c-0.137,0.038-0.274,0.076-0.412,0.113c-0.528,0.144-1.063,0.285-1.614,0.424c-0.018,0.004-0.036,0.008-0.054,0.013
				c-0.531,0.134-1.077,0.263-1.632,0.39c-0.148,0.034-0.298,0.068-0.448,0.102c-0.58,0.131-1.169,0.258-1.776,0.381
				c-0.026,0.005-0.053,0.01-0.079,0.016c-0.582,0.115-1.181,0.227-1.79,0.335c-0.167,0.03-0.335,0.06-0.505,0.089
				c-0.644,0.11-1.297,0.218-1.973,0.318c-0.034,0.005-0.071,0.01-0.105,0.015c-3.812,0.562-8.157,0.95-13.254,1.065
				c-1.027,0.023-2.084,0.035-3.174,0.035c-0.003,0-0.007,0-0.01,0c-5.84,0-10.74-0.35-15-0.909v30.886h15h0.008h14.992h105.007
				h105.003h13.396c0.525-0.056,1.061-0.084,1.602-0.084c0.001,0,0.001,0,0.001,0c0.534,0,1.06,0.029,1.579,0.084h13.422
				l0.005-30.885C295.836,169.589,291.034,169.933,285.341,169.946z"/>
		</g>
	</g>
	<path style="fill:#D3831F;" d="M71.199,59.393C44.632,79.268,30,106.1,30,134.95v3.702c3.927,0.801,8.54,1.298,15,1.298
		c0.003,0,0.007,0,0.01,0c6.454,0,11.065-0.495,14.99-1.295c0.201-0.041,0.399-0.083,0.597-0.125
		c0.215-0.047,0.432-0.092,0.643-0.14c0.245-0.056,0.484-0.114,0.726-0.173c0.206-0.05,0.415-0.099,0.618-0.15
		c0.243-0.062,0.481-0.126,0.721-0.189c0.194-0.052,0.391-0.102,0.583-0.155c0.247-0.068,0.492-0.14,0.736-0.21
		c0.181-0.053,0.362-0.104,0.542-0.156c0.269-0.08,0.536-0.162,0.804-0.244c0.152-0.047,0.305-0.092,0.456-0.14
		c0.335-0.104,0.67-0.212,1.006-0.319c0.082-0.027,0.164-0.053,0.247-0.079c0.85-0.275,1.706-0.561,2.586-0.855
		c2.874-0.957,5.893-1.959,9.355-2.854c0.603-0.155,1.225-0.307,1.854-0.456c0.174-0.041,0.345-0.082,0.521-0.123
		c0.562-0.129,1.142-0.252,1.729-0.374c0.261-0.054,0.522-0.108,0.789-0.16c0.501-0.099,1.009-0.195,1.53-0.288
		c0.241-0.043,0.491-0.083,0.737-0.124c0.406-0.069,0.818-0.136,1.237-0.2c0.245-0.037,0.489-0.076,0.738-0.112
		c0.613-0.089,1.238-0.174,1.88-0.253c0.21-0.026,0.427-0.051,0.64-0.076c0.557-0.064,1.122-0.127,1.7-0.185
		c0.186-0.018,0.367-0.038,0.556-0.056c0.728-0.068,1.476-0.131,2.239-0.186c0.205-0.016,0.413-0.029,0.62-0.043
		c0.715-0.048,1.443-0.091,2.192-0.127c0.115-0.006,0.226-0.013,0.342-0.018c0.845-0.039,1.718-0.067,2.607-0.09
		c0.214-0.005,0.432-0.01,0.648-0.014c0.921-0.018,1.857-0.031,2.828-0.031c0,0,0,0,0.001,0h0.001c1.527,0,2.971,0.031,4.376,0.076
		c14.638,0.466,22.963,3.227,30.365,5.693c7.09,2.363,12.69,4.23,25.256,4.23V30.087C129.745,30.112,96.435,40.516,71.199,59.393z"
		/>
	<path style="fill:#D3831F;" d="M45.008,229.926h-15v5c0,35.842,29.159,65,65,65h69.999v-70H60.008L45.008,229.926L45.008,229.926z"
		/>
	<path style="fill:#AD2E08;" d="M128.95,163.742c-6.504-2.152-12.162-3.793-23.941-3.793c-7.854,0-12.987,0.73-17.463,1.854
		c-2.687,0.674-5.136,1.49-7.795,2.377c-0.425,0.142-0.854,0.284-1.285,0.428c-0.129,0.042-0.258,0.085-0.388,0.127
		c-0.472,0.156-0.947,0.313-1.431,0.469c-0.006,0.002-0.012,0.004-0.017,0.005c-0.462,0.15-0.932,0.298-1.406,0.445
		c-0.12,0.038-0.241,0.075-0.363,0.112c-0.494,0.153-0.993,0.305-1.504,0.455c-0.011,0.003-0.021,0.006-0.032,0.009
		c-0.489,0.144-0.991,0.285-1.499,0.425c-0.137,0.038-0.274,0.076-0.412,0.113c-0.528,0.144-1.063,0.285-1.614,0.424
		c-0.018,0.004-0.036,0.008-0.054,0.013c-0.531,0.134-1.077,0.263-1.632,0.39c-0.148,0.034-0.298,0.068-0.448,0.102
		c-0.58,0.131-1.169,0.258-1.776,0.381c-0.026,0.005-0.053,0.01-0.079,0.016c-0.582,0.115-1.181,0.227-1.79,0.335
		c-0.167,0.03-0.335,0.06-0.505,0.089c-0.644,0.11-1.297,0.218-1.973,0.318c-0.034,0.005-0.071,0.01-0.105,0.015
		c-3.812,0.562-8.157,0.95-13.254,1.065c-1.027,0.023-2.084,0.035-3.174,0.035c-0.003,0-0.007,0-0.01,0c-5.84,0-10.74-0.35-15-0.909
		v30.886h15h0.008H60h105.007v-29.977c-17.434,0-26.629-3.065-34.742-5.77C129.822,164.031,129.384,163.886,128.95,163.742z"/>
</g>
<g>
</g>
<g>
</g>
<g>
</g>
<g>
</g>
<g>
</g>
<g>
</g>
<g>
</g>
<g>
</g>
<g>
</g>
<g>
</g>
<g>
</g>
<g>
</g>
<g>
</g>
<g>
</g>
<g>
</g>
</svg>
