<?xml version="1.0" encoding="iso-8859-1"?>
<!-- Generator: Adobe Illustrator 19.0.0, SVG Export Plug-In . SVG Version: 6.00 Build 0)  -->
<svg version="1.1" id="Layer_1" xmlns="http://www.w3.org/2000/svg" xmlns:xlink="http://www.w3.org/1999/xlink" x="0px" y="0px"
	 viewBox="0 0 512 512" style="enable-background:new 0 0 512 512;" xml:space="preserve">
<path style="fill:#8CC1EA;" d="M340.96,384.834H237.195l65.812-284.129h98.985c53.581,0,97.008,43.428,97.008,96.994v187.135
	h-46.617"/>
<polyline style="fill:#F2CA7F;" points="60.662,384.834 18.877,384.834 18.877,71.456 303.007,71.456 303.007,100.705 
	303.007,384.834 172.084,384.834 "/>
<rect x="18.879" y="284.672" style="fill:#79B1D6;" width="284.13" height="100.164"/>
<g>
	<circle style="fill:#898686;" cx="116.375" cy="384.837" r="55.707"/>
	<circle style="fill:#898686;" cx="396.673" cy="384.837" r="55.707"/>
</g>
<path style="fill:#CEE5F2;" d="M457.217,240.68v-42.982c0-30.443-24.774-55.21-55.225-55.21H344.79v98.192H457.217z"/>
<g>
	<circle style="fill:#EDEBEB;" cx="116.375" cy="384.837" r="22.245"/>
	<circle style="fill:#EDEBEB;" cx="396.673" cy="384.837" r="22.245"/>
</g>
<g>
	<path style="fill:#9E9A9A;" d="M116.373,414.133c-16.155,0-29.298-13.143-29.298-29.298c0-16.155,13.143-29.298,29.298-29.298
		s29.298,13.143,29.298,29.298C145.672,400.989,132.528,414.133,116.373,414.133z M116.373,369.642
		c-8.377,0-15.192,6.816-15.192,15.192s6.816,15.192,15.192,15.192s15.192-6.816,15.192-15.192S124.75,369.642,116.373,369.642z"/>
	<path style="fill:#9E9A9A;" d="M396.672,414.133c-16.155,0-29.299-13.143-29.299-29.298c0-16.155,13.144-29.298,29.299-29.298
		c16.155,0,29.298,13.143,29.298,29.298C425.97,400.989,412.827,414.133,396.672,414.133z M396.672,369.642
		c-8.378,0-15.193,6.816-15.193,15.192s6.816,15.192,15.193,15.192c8.377,0,15.192-6.816,15.192-15.192
		S405.048,369.642,396.672,369.642z"/>
</g>
<path style="fill:#FFFFFF;" d="M457.217,325.403c-4.87,0-8.816-3.947-8.816-8.816v-26.463c0-4.869,3.946-8.816,8.816-8.816
	c4.87,0,8.816,3.947,8.816,8.816v26.463C466.033,321.457,462.086,325.403,457.217,325.403z"/>
<g>
	<path style="fill:#E0B76E;" d="M503.184,368.716H475.49c-4.87,0-8.816-3.947-8.816-8.816s3.946-8.816,8.816-8.816h27.694
		c4.87,0,8.816,3.947,8.816,8.816S508.054,368.716,503.184,368.716z"/>
	<path style="fill:#E0B76E;" d="M36.51,368.716H8.816C3.947,368.716,0,364.768,0,359.9s3.947-8.816,8.816-8.816H36.51
		c4.869,0,8.816,3.947,8.816,8.816S41.379,368.716,36.51,368.716z"/>
</g>
<g>
</g>
<g>
</g>
<g>
</g>
<g>
</g>
<g>
</g>
<g>
</g>
<g>
</g>
<g>
</g>
<g>
</g>
<g>
</g>
<g>
</g>
<g>
</g>
<g>
</g>
<g>
</g>
<g>
</g>
</svg>
