<?xml version="1.0" encoding="iso-8859-1"?>
<!-- Generator: Adobe Illustrator 19.0.0, SVG Export Plug-In . SVG Version: 6.00 Build 0)  -->
<svg version="1.1" id="Layer_1" xmlns="http://www.w3.org/2000/svg" xmlns:xlink="http://www.w3.org/1999/xlink" x="0px" y="0px"
	 viewBox="0 0 433.48 433.48" style="enable-background:new 0 0 433.48 433.48;" xml:space="preserve">
<g>
	<path style="fill:#EA587F;" d="M318.735,102v177.54c0,11.71-9.49,21.21-21.2,21.21h-161.58c-11.71,0-21.21-9.5-21.21-21.21V102
		c0-56.33,45.67-102,102-102S318.735,45.67,318.735,102z"/>
	<path style="fill:#F9DB87;" d="M245.995,300.75v103.48c0,16.16-13.1,29.25-29.25,29.25c-16.16,0-29.25-13.09-29.25-29.25V300.75
		H245.995z"/>
	<path style="fill:#E5B94C;" d="M245.995,300.75v103.48c0,16.16-13.1,29.25-29.25,29.25V300.75H245.995z"/>
	<path style="fill:#CE3E6B;" d="M318.735,102v177.54c0,11.71-9.49,21.21-21.2,21.21h-80.79V0C273.075,0,318.735,45.67,318.735,102z"
		/>
	<rect x="187.495" y="300.75" style="fill:#E5B94C;" width="58.5" height="22.9"/>
	<path style="fill:#FFFFFF;" d="M190.623,25.556c-2.329,0-4.491-1.49-5.238-3.827c-0.924-2.894,0.672-5.989,3.565-6.913
		c3.069-0.981,6.225-1.806,9.379-2.453c2.978-0.611,5.883,1.306,6.493,4.282s-1.307,5.883-4.282,6.493
		c-2.772,0.569-5.546,1.294-8.243,2.156C191.742,25.472,191.177,25.556,190.623,25.556z"/>
	<path style="fill:#FFFFFF;" d="M130.745,150.997c-3.038,0-5.5-2.462-5.5-5.5V102c0-30.997,15.551-59.656,41.598-76.665
		c2.545-1.661,5.952-0.945,7.612,1.598c1.661,2.543,0.945,5.951-1.598,7.612c-22.926,14.97-36.612,40.187-36.612,67.455v43.497
		C136.245,148.535,133.783,150.997,130.745,150.997z"/>
</g>
<g>
</g>
<g>
</g>
<g>
</g>
<g>
</g>
<g>
</g>
<g>
</g>
<g>
</g>
<g>
</g>
<g>
</g>
<g>
</g>
<g>
</g>
<g>
</g>
<g>
</g>
<g>
</g>
<g>
</g>
</svg>
