<?xml version="1.0" encoding="iso-8859-1"?>
<!-- Generator: Adobe Illustrator 19.0.0, SVG Export Plug-In . SVG Version: 6.00 Build 0)  -->
<svg version="1.1" id="Layer_1" xmlns="http://www.w3.org/2000/svg" xmlns:xlink="http://www.w3.org/1999/xlink" x="0px" y="0px"
	 viewBox="0 0 512 512" style="enable-background:new 0 0 512 512;" xml:space="preserve">
<path style="fill:#FFC72D;" d="M255.997,484.842c-50.214,0-97.678-5.676-133.651-15.981C77.5,456.013,54.762,437.188,54.762,412.91
	c0-2.732,0.559-5.436,1.643-7.943l2.397-5.544c3.118-7.211,3.118-7.211,12.555-29.069l8.48-19.641
	c2.189-5.067,6.371-9.007,11.563-10.887c5.19-1.879,10.927-1.532,15.852,0.958c63.949,32.344,233.55,32.344,297.498,0
	c4.926-2.492,10.662-2.837,15.852-0.958c5.19,1.88,9.374,5.819,11.563,10.887l8.659,20.054c9.271,21.476,9.271,21.476,12.393,28.693
	l2.381,5.505c1.085,2.508,1.643,5.211,1.643,7.945c0,24.278-22.739,43.103-67.586,55.951
	C353.677,479.166,306.211,484.842,255.997,484.842z"/>
<path style="fill:#F5BC20;" d="M455.591,404.965l-2.381-5.505c-3.12-7.217-3.12-7.217-12.393-28.693l-8.659-20.054
	c-2.189-5.067-6.371-9.007-11.563-10.887c-5.19-1.879-10.925-1.533-15.852,0.958c-31.974,16.172-90.361,24.258-148.749,24.258v119.8
	c50.214,0,97.678-5.676,133.651-15.981c44.846-12.848,67.586-31.673,67.586-55.951C457.234,410.178,456.675,407.474,455.591,404.965
	z"/>
<path style="fill:#FFEDBE;" d="M255.997,404.898c-64.708,0-129.397-9.461-166.819-28.389c-9.446-4.778-13.54-16.083-9.343-25.801
	c3.809-8.817,6.77-15.733,9.295-21.628c14.76-34.462,14.76-34.462,79.318-170.837c17.723-37.441,40.325-85.186,69.453-146.784
	C241.209,4.463,248.257,0,255.997,0c7.74,0,14.788,4.463,18.098,11.461c29.131,61.605,51.735,109.356,69.459,146.798
	c64.548,136.356,64.548,136.356,79.298,170.796c2.526,5.899,5.492,12.822,9.307,21.654c4.197,9.718,0.104,21.023-9.343,25.801
	C385.403,395.434,320.69,404.898,255.997,404.898z"/>
<path style="fill:#FFE49C;" d="M432.159,350.71c-3.814-8.832-6.78-15.756-9.307-21.654c-14.749-34.441-14.749-34.441-79.298-170.797
	c-17.725-37.442-40.329-85.192-69.459-146.798C270.786,4.463,263.739,0,255.997,0v404.898c5.337,0,10.672-0.071,15.993-0.2v87.284
	c0,11.055,8.963,20.018,20.018,20.018c11.055,0,20.018-8.963,20.018-20.018v-89.515c4.198-0.372,8.36-0.789,12.477-1.246v10.514
	c0,11.055,8.963,20.018,20.018,20.018c11.055,0,20.018-8.963,20.018-20.018v-16.65c22.786-4.586,42.854-10.774,58.276-18.574
	C432.262,371.732,436.356,360.427,432.159,350.71z"/>
<circle style="fill:#FF5E5B;" cx="255.991" cy="169.755" r="22.687"/>
<g>
	<path style="fill:#ED3E3C;" d="M255.997,147.067v45.375c12.53,0,22.687-10.157,22.687-22.687
		C278.685,157.225,268.527,147.067,255.997,147.067z"/>
	<circle style="fill:#ED3E3C;" cx="321.837" cy="311.03" r="22.687"/>
</g>
<path style="fill:#23B898;" d="M247.978,290.758c-2.808,0-5.66-0.593-8.376-1.847c-10.038-4.632-14.42-16.526-9.786-26.564
	l16.015-34.698c4.632-10.038,16.53-14.421,26.564-9.786c10.038,4.632,14.42,16.526,9.788,26.564l-16.015,34.698
	C262.788,286.446,255.545,290.758,247.978,290.758z"/>
<path style="fill:#1DA49C;" d="M272.394,217.863c-5.402-2.496-11.337-2.357-16.396-0.148v71.362
	c4.339-1.892,8.029-5.317,10.168-9.953l16.015-34.698C286.813,234.388,282.432,222.495,272.394,217.863z"/>
<circle style="fill:#FF5E5B;" cx="190.157" cy="311.03" r="22.687"/>
<g>
</g>
<g>
</g>
<g>
</g>
<g>
</g>
<g>
</g>
<g>
</g>
<g>
</g>
<g>
</g>
<g>
</g>
<g>
</g>
<g>
</g>
<g>
</g>
<g>
</g>
<g>
</g>
<g>
</g>
</svg>
