<?xml version="1.0" encoding="iso-8859-1"?>
<!-- Generator: Adobe Illustrator 19.0.0, SVG Export Plug-In . SVG Version: 6.00 Build 0)  -->
<svg version="1.1" id="Layer_1" xmlns="http://www.w3.org/2000/svg" xmlns:xlink="http://www.w3.org/1999/xlink" x="0px" y="0px"
	 viewBox="0 0 512.001 512.001" style="enable-background:new 0 0 512.001 512.001;" xml:space="preserve">
<path style="fill:#FF5E5B;" d="M322.423,512.001H183.619c-10.82,0-19.592-8.772-19.592-19.592v-64.183
	c0-10.82,8.772-19.592,19.592-19.592h138.804c10.82,0,19.592,8.772,19.592,19.592v64.183
	C342.015,503.23,333.243,512.001,322.423,512.001z"/>
<path style="fill:#ED3E3C;" d="M322.423,408.635h-66.427v103.367h66.427c10.82,0,19.592-8.772,19.592-19.592v-64.183
	C342.015,417.405,333.243,408.635,322.423,408.635z"/>
<path style="fill:#5D5D5D;" d="M378.459,268.28c-5.014,0-10.028-1.912-13.853-5.739c-7.651-7.65-7.651-20.055,0-27.706
	l101.162-101.163c7.65-7.651,20.055-7.651,27.707,0c7.651,7.65,7.651,20.055,0,27.706L392.313,262.541
	C388.487,266.368,383.473,268.28,378.459,268.28z"/>
<path style="fill:#FFDA79;" d="M139.82,211.451c-7.865,0-15.287-4.771-18.286-12.552c-3.891-10.096,1.14-21.436,11.238-25.327
	c10.178-3.922,17.016-13.881,17.016-24.783c0-10.901-6.837-20.861-17.016-24.783c-25.188-9.707-42.11-34.36-42.11-61.345
	s16.922-51.638,42.109-61.345c10.094-3.89,21.436,1.139,25.327,11.236c3.891,10.096-1.139,21.436-11.235,25.327
	c-10.179,3.922-17.017,13.881-17.017,24.783s6.839,20.861,17.017,24.783c25.186,9.707,42.109,34.359,42.109,61.345
	s-16.923,51.64-42.11,61.345C144.544,211.029,142.163,211.451,139.82,211.451z"/>
<path style="fill:#FFC72D;" d="M245.568,211.451c-7.867,0-15.287-4.771-18.284-12.552c-3.891-10.096,1.139-21.436,11.235-25.327
	c10.179-3.922,17.016-13.881,17.016-24.783c0-10.901-6.837-20.861-17.016-24.783c-25.186-9.707-42.109-34.36-42.109-61.345
	s16.923-51.638,42.11-61.345c10.092-3.89,21.435,1.139,25.327,11.236c3.891,10.098-1.14,21.436-11.238,25.327
	c-10.179,3.922-17.016,13.881-17.016,24.783s6.837,20.861,17.016,24.783c25.187,9.707,42.109,34.36,42.109,61.345
	c0,26.987-16.922,51.64-42.108,61.345C250.295,211.029,247.911,211.451,245.568,211.451z"/>
<path style="fill:#ED3E3C;" d="M343.314,447.818H162.728c-82.678,0-149.94-67.262-149.94-149.939V248.69
	c0-10.82,8.772-19.592,19.592-19.592h441.283c10.82,0,19.592,8.772,19.592,19.592v49.189
	C493.254,380.556,425.992,447.818,343.314,447.818z"/>
<path style="fill:#D62F2D;" d="M473.663,229.097H255.997v218.72h87.319c82.678,0,149.94-67.262,149.94-149.939v-49.189
	C493.254,237.869,484.483,229.097,473.663,229.097z"/>
<g>
</g>
<g>
</g>
<g>
</g>
<g>
</g>
<g>
</g>
<g>
</g>
<g>
</g>
<g>
</g>
<g>
</g>
<g>
</g>
<g>
</g>
<g>
</g>
<g>
</g>
<g>
</g>
<g>
</g>
</svg>
