<?xml version="1.0" encoding="iso-8859-1"?>
<!-- Generator: Adobe Illustrator 19.0.0, SVG Export Plug-In . SVG Version: 6.00 Build 0)  -->
<svg version="1.1" id="Layer_1" xmlns="http://www.w3.org/2000/svg" xmlns:xlink="http://www.w3.org/1999/xlink" x="0px" y="0px"
	 viewBox="0 0 512 512" style="enable-background:new 0 0 512 512;" xml:space="preserve">
<path style="fill:#57565C;" d="M429.893,36.37C382.985,12.915,321.231,0,256,0S129.015,12.915,82.107,36.37
	C29.16,62.844,0,100.257,0,141.714v228.571c0,41.457,29.16,78.87,82.107,105.344C129.015,499.085,190.769,512,256,512
	s126.985-12.915,173.893-36.37C482.84,449.156,512,411.743,512,370.286V141.714C512,100.257,482.84,62.844,429.893,36.37z"/>
<path style="fill:#DEDEE0;" d="M445.074,114.286C417.567,82.637,345.604,54.857,256,54.857S94.433,82.637,66.926,114.286
	c-7.832,9.013-12.069,18.341-12.069,27.429c0,9.088,4.235,18.416,12.069,27.429c27.507,31.649,99.471,59.429,189.074,59.429
	s161.567-27.78,189.074-59.429c7.832-9.013,12.069-18.341,12.069-27.429C457.143,132.626,452.908,123.299,445.074,114.286z"/>
<path style="fill:#E07188;" d="M317.314,114.286c-15.066-8.415-36.948-13.714-61.314-13.714s-46.248,5.299-61.314,13.714
	c-13.036,7.28-20.972,16.889-20.972,27.429c0,10.54,7.936,20.149,20.968,27.429c15.067,8.415,36.95,13.714,61.317,13.714
	s46.25-5.299,61.318-13.714c13.032-7.28,20.968-16.889,20.968-27.429C338.286,131.174,330.35,121.565,317.314,114.286z"/>
<path style="fill:#FF3F62;" d="M173.714,141.714c0,10.54,7.936,20.149,20.968,27.429c15.067,8.415,36.95,13.716,61.317,13.716
	v-82.288c-24.366,0-46.248,5.299-61.314,13.714C181.65,121.565,173.714,131.174,173.714,141.714z"/>
<path style="fill:#D6D5D8;" d="M194.683,169.143c-13.032-7.28-20.968-16.889-20.968-27.429c0-10.54,7.936-20.149,20.972-27.429
	c15.066-8.415,36.948-13.714,61.314-13.714V54.857c-89.604,0-161.567,27.78-189.074,59.429
	c-7.832,9.013-12.069,18.341-12.069,27.429c0,9.088,4.235,18.416,12.069,27.429c27.507,31.649,99.471,59.429,189.074,59.429v-45.712
	C231.632,182.859,209.75,177.558,194.683,169.143z"/>
<path style="fill:#3E3D42;" d="M82.107,475.63C129.015,499.083,190.769,512,256,512V228.571c-89.604,0-161.567-27.78-189.074-59.429
	c-7.832-9.013-12.069-18.341-12.069-27.429c0-9.088,4.235-18.416,12.069-27.429C94.433,82.637,166.396,54.857,256,54.857V0
	C190.769,0,129.015,12.915,82.107,36.37C29.16,62.844,0,100.257,0,141.714v228.571C0,411.743,29.16,449.156,82.107,475.63z"/>
<g>
</g>
<g>
</g>
<g>
</g>
<g>
</g>
<g>
</g>
<g>
</g>
<g>
</g>
<g>
</g>
<g>
</g>
<g>
</g>
<g>
</g>
<g>
</g>
<g>
</g>
<g>
</g>
<g>
</g>
</svg>
