<?xml version="1.0" encoding="iso-8859-1"?>
<!-- Generator: Adobe Illustrator 19.0.0, SVG Export Plug-In . SVG Version: 6.00 Build 0)  -->
<svg version="1.1" id="Layer_1" xmlns="http://www.w3.org/2000/svg" xmlns:xlink="http://www.w3.org/1999/xlink" x="0px" y="0px"
	 viewBox="0 0 500 500" style="enable-background:new 0 0 500 500;" xml:space="preserve">
<g>
	<g>
		<path d="M492.172,455.48h-15.164V31.516c0-2.164-1.768-2.652-3.928-2.652h-70.168c-2.164,0-4.184,0.488-4.184,2.652V455.48
			h-15.652V246.928c0-2.164-1.524-2.8-3.688-2.8h-70.712c-2.164,0-3.884,0.636-3.884,2.8V455.48H289.14V164.832
			c0-2.164-1.392-2.896-3.552-2.896h-70.852c-2.164,0-3.876,0.732-3.876,2.896V455.48h-15.656V297.72
			c0-2.164-1.748-2.712-3.912-2.712h-70.168c-2.164,0-4.196,0.548-4.196,2.712v157.76h-15.656v-67.656
			c0-2.164-1.744-2.792-3.908-2.792h-70.44c-2.164,0-3.928,0.628-3.928,2.792v67.656H7.828c-4.324,0-7.828,3.508-7.828,7.828
			c0,4.324,3.504,7.828,7.828,7.828h484.344c4.324,0,7.828-3.504,7.828-7.828C500,458.988,496.496,455.48,492.172,455.48z"/>
	</g>
</g>
<g>
</g>
<g>
</g>
<g>
</g>
<g>
</g>
<g>
</g>
<g>
</g>
<g>
</g>
<g>
</g>
<g>
</g>
<g>
</g>
<g>
</g>
<g>
</g>
<g>
</g>
<g>
</g>
<g>
</g>
</svg>
