<?xml version='1.0' encoding='utf-8'?>
<!DOCTYPE svg PUBLIC '-//W3C//DTD SVG 1.1//EN' 'http://www.w3.org/Graphics/SVG/1.1/DTD/svg11.dtd'>
<svg version="1.1" xmlns="http://www.w3.org/2000/svg" viewBox="0 0 512 512" xmlns:xlink="http://www.w3.org/1999/xlink" enable-background="new 0 0 512 512">
  <g>
    <g>
      <path d="m256,51.8c-112.6,0-204.2,91.6-204.2,204.2s91.6,204.2 204.2,204.2 204.2-91.6 204.2-204.2-91.6-204.2-204.2-204.2v-1.42109e-14zm0,449.2c-135.1,0-245-109.9-245-245s109.9-245 245-245 245,109.9 245,245-109.9,245-245,245z"/>
      <path d="m344.1,276.4h-88.1c-11.3,0-20.4-9.1-20.4-20.4v-157.8c0-11.3 9.1-20.4 20.4-20.4 11.3,0 20.4,9.1 20.4,20.4v137.4h67.7c11.3,0 20.4,9.1 20.4,20.4 5.68434e-14,11.3-9.1,20.4-20.4,20.4z"/>
    </g>
  </g>
</svg>
