<?xml version="1.0" encoding="iso-8859-1"?>
<!-- Generator: Adobe Illustrator 19.0.0, SVG Export Plug-In . SVG Version: 6.00 Build 0)  -->
<svg version="1.1" id="Layer_1" xmlns="http://www.w3.org/2000/svg" xmlns:xlink="http://www.w3.org/1999/xlink" x="0px" y="0px"
	 viewBox="0 0 330 330" style="enable-background:new 0 0 330 330;" xml:space="preserve">
<g id="XMLID_24_">
	<path id="XMLID_25_" d="M103.898,193.884l-9.29,54.15c-0.965,5.627,1.348,11.315,5.967,14.671c4.619,3.356,10.742,3.8,15.797,1.142
		L165,238.283l48.628,25.564c2.194,1.154,4.591,1.723,6.978,1.723c0.016,0,0.03,0,0.045,0c8.274-0.012,14.977-6.723,14.977-15
		c0-1.152-0.13-2.274-0.376-3.352l-9.149-53.334l39.339-38.342c4.089-3.985,5.561-9.946,3.796-15.377
		c-1.764-5.43-6.458-9.388-12.109-10.209l-54.363-7.898l-24.313-49.266c-2.526-5.12-7.741-8.362-13.451-8.362
		s-10.925,3.242-13.451,8.362l-24.311,49.265l-54.365,7.898c-5.65,0.821-10.346,4.779-12.109,10.209
		c-1.765,5.431-0.293,11.392,3.796,15.377L103.898,193.884z M139.355,150.612c4.887-0.71,9.11-3.779,11.295-8.206l14.35-29.08
		l14.352,29.08c2.185,4.427,6.408,7.496,11.295,8.206l32.088,4.662l-23.22,22.631c-3.536,3.446-5.149,8.412-4.314,13.278
		l5.484,31.966l-28.705-15.09c-2.185-1.149-4.582-1.723-6.98-1.723s-4.795,0.574-6.98,1.723l-28.705,15.09l5.484-31.966
		c0.835-4.866-0.778-9.832-4.314-13.278l-23.219-22.631L139.355,150.612z"/>
	<path id="XMLID_28_" d="M315,0H15C6.716,0,0,6.716,0,15v300c0,8.284,6.716,15,15,15h300c8.284,0,15-6.716,15-15V15
		C330,6.716,323.284,0,315,0z M300,300H30V30h270V300z"/>
</g>
<g>
</g>
<g>
</g>
<g>
</g>
<g>
</g>
<g>
</g>
<g>
</g>
<g>
</g>
<g>
</g>
<g>
</g>
<g>
</g>
<g>
</g>
<g>
</g>
<g>
</g>
<g>
</g>
<g>
</g>
</svg>
