<?xml version="1.0" encoding="iso-8859-1"?>
<!-- Generator: Adobe Illustrator 18.0.0, SVG Export Plug-In . SVG Version: 6.00 Build 0)  -->
<!DOCTYPE svg PUBLIC "-//W3C//DTD SVG 1.1//EN" "http://www.w3.org/Graphics/SVG/1.1/DTD/svg11.dtd">
<svg version="1.1" id="Capa_1" xmlns="http://www.w3.org/2000/svg" xmlns:xlink="http://www.w3.org/1999/xlink" x="0px" y="0px"
	 viewBox="0 0 459.739 459.739" style="enable-background:new 0 0 459.739 459.739;" xml:space="preserve">
<path d="M229.869,0C102.917,0,0,102.917,0,229.87c0,126.952,102.917,229.869,229.869,229.869s229.87-102.918,229.87-229.869
	C459.739,102.917,356.821,0,229.869,0z M313.677,260.519h-53.158v53.158c0,16.925-13.724,30.649-30.649,30.649
	c-16.926,0-30.649-13.724-30.649-30.649v-53.158h-53.156c-16.926,0-30.65-13.723-30.65-30.649c0-16.927,13.724-30.65,30.65-30.65
	h53.156v-53.156c0-16.927,13.724-30.65,30.649-30.65c16.926,0,30.649,13.724,30.649,30.65v53.156h53.158
	c16.924,0,30.648,13.723,30.648,30.65C344.325,246.796,330.601,260.519,313.677,260.519z"/>
<g>
</g>
<g>
</g>
<g>
</g>
<g>
</g>
<g>
</g>
<g>
</g>
<g>
</g>
<g>
</g>
<g>
</g>
<g>
</g>
<g>
</g>
<g>
</g>
<g>
</g>
<g>
</g>
<g>
</g>
</svg>
